# xmcd CD database file generated by Grip 3.0.5
# 
# Track frame offsets:
#       150
#       8572
#       21857
#       35457
#       50722
#       64365
#       89350
#       106325
#       125940
#       139802
#       160465
#       176987
# 
# Disc length: 2407 seconds
# 
# Revision: 3
# Processed by: cddbd v1.4PL0 Copyright (c) Steve Scherf et al.
# Submitted via: Grip 3.0.5
# 
DISCID=ae09650c
DTITLE=The Blues Brothers - Briefcase full of blues
DYEAR=1900
DGENRE=Blues
TTITLE0=Opening: I can't turn you loose
TTITLE1=Hey Bartender
TTITLE2=Messin' with the Kid
TTITLE3=(I got everything I need) Almost
TTITLE4=Rubber Biscuit
TTITLE5=Shot Gun BLues
TTITLE6=Groove Me
TTITLE7=I Don't Know
TTITLE8=Soul Man
TTITLE9="B" Movie Box Car Blues
TTITLE10=Flip, Flop and Fly
TTITLE11=Closing: I can't turn you loose
EXTD=
EXTT0=
EXTT1=
EXTT2=
EXTT3=
EXTT4=
EXTT5=
EXTT6=
EXTT7=
EXTT8=
EXTT9=
EXTT10=
EXTT11=
PLAYORDER=
